<?xml version="1.0" encoding="UTF-8"?><svg id="_レイヤー_2" xmlns="http://www.w3.org/2000/svg" viewBox="0 0 129.72 93.36"><defs><style>.cls-1{stroke-width:0px;}</style></defs><g id="contents"><path class="cls-1" d="m7.1,45.46c-1.12,0-2.25-.26-3.31-.82-3.47-1.83-4.8-6.13-2.96-9.6L17.33,3.79C18.56,1.46,20.97,0,23.61,0s5.05,1.46,6.28,3.79l10.22,19.35L50.33,3.79C51.56,1.46,53.98,0,56.61,0s5.05,1.46,6.28,3.79l10.22,19.35,10.22-19.35C84.56,1.46,86.98,0,89.61,0s5.05,1.46,6.28,3.79l10.22,19.35,10.22-19.35c1.83-3.47,6.13-4.8,9.6-2.96,3.47,1.83,4.8,6.13,2.97,9.6l-16.5,31.25c-1.23,2.33-3.65,3.79-6.28,3.79s-5.05-1.46-6.28-3.79l-10.22-19.35-10.22,19.35c-1.23,2.33-3.65,3.79-6.28,3.79s-5.05-1.46-6.28-3.79l-10.22-19.35-10.22,19.35c-1.23,2.33-3.65,3.79-6.28,3.79s-5.05-1.46-6.28-3.79l-10.22-19.35-10.22,19.35c-1.27,2.41-3.74,3.79-6.29,3.79Z"/><path class="cls-1" d="m7.1,93.36c-1.12,0-2.25-.26-3.31-.82-3.47-1.83-4.8-6.13-2.96-9.6l16.5-31.25c1.23-2.33,3.65-3.79,6.28-3.79s5.05,1.46,6.28,3.79l10.22,19.35,10.22-19.35c1.23-2.33,3.65-3.79,6.28-3.79s5.05,1.46,6.28,3.79l10.22,19.35,10.22-19.35c1.23-2.33,3.65-3.79,6.28-3.79s5.05,1.46,6.28,3.79l10.22,19.35,10.22-19.35c1.83-3.47,6.13-4.8,9.6-2.96,3.47,1.83,4.8,6.13,2.97,9.6l-16.5,31.25c-1.23,2.33-3.65,3.79-6.28,3.79s-5.05-1.46-6.28-3.79l-10.22-19.35-10.22,19.35c-1.23,2.33-3.65,3.79-6.28,3.79s-5.05-1.46-6.28-3.79l-10.22-19.35-10.22,19.35c-1.23,2.33-3.65,3.79-6.28,3.79s-5.05-1.46-6.28-3.79l-10.22-19.35-10.22,19.35c-1.27,2.41-3.74,3.79-6.29,3.79Z"/></g></svg>