<?xml version="1.0" encoding="UTF-8"?><svg id="_レイヤー_2" xmlns="http://www.w3.org/2000/svg" viewBox="0 0 105.95 124.9"><defs><style>.cls-1{stroke-width:0px;}</style></defs><g id="contents"><path class="cls-1" d="m52.98,124.9c-3.77,0-6.84-3.07-6.84-6.84V29.91c0-8.95-7.28-16.23-16.23-16.23S13.67,22.14,13.67,31.45v4.74c0,3.77-3.07,6.84-6.84,6.84s-6.84-3.07-6.84-6.84v-4.74c0-7.83,3.12-15.73,8.57-21.68C14.34,3.47,21.91,0,29.91,0c9.01,0,17.35,3.96,23.07,10.9C58.69,3.96,67.04,0,76.05,0c7.99,0,15.57,3.47,21.33,9.76,5.45,5.95,8.57,13.85,8.57,21.68v4.74c0,3.77-3.07,6.84-6.84,6.84s-6.84-3.07-6.84-6.84v-4.74c0-9.3-7.74-17.77-16.23-17.77-8.95,0-16.23,7.28-16.23,16.23v88.16c0,3.77-3.07,6.84-6.84,6.84Z"/></g></svg>