<?xml version="1.0" encoding="UTF-8"?><svg id="_レイヤー_2" xmlns="http://www.w3.org/2000/svg" viewBox="0 0 114.18 114.24"><defs><style>.cls-1{stroke-width:0px;}</style></defs><g id="contents"><path class="cls-1" d="m39.48,57.15c0-10.89-8.86-19.74-19.74-19.74-.93,0-1.85.07-2.76.19,7.26-14.86,22.54-25.12,40.16-25.12,13.87,0,26.73,6.29,35.27,17.25,2.12,2.72,6.04,3.21,8.75,1.09,2.72-2.12,3.2-6.04,1.09-8.75-5.23-6.71-12-12.27-19.59-16.06-7.97-3.98-16.55-6-25.51-6-15.26,0-29.61,5.94-40.41,16.74C5.94,27.53,0,41.88,0,57.14h0c0,10.89,8.86,19.74,19.74,19.74s19.74-8.86,19.74-19.74Zm-27.01,0c0-4.01,3.26-7.27,7.27-7.27s7.27,3.26,7.27,7.27-3.26,7.27-7.27,7.27-7.27-3.26-7.27-7.27Z"/><path class="cls-1" d="m114.18,57.09c0-10.89-8.85-19.74-19.74-19.74s-19.74,8.86-19.74,19.74,8.86,19.74,19.74,19.74c.93,0,1.85-.07,2.76-.19-7.26,14.86-22.54,25.12-40.16,25.12-13.87,0-26.73-6.29-35.27-17.25-2.12-2.72-6.04-3.21-8.75-1.09-2.72,2.12-3.21,6.04-1.09,8.75,5.23,6.71,12,12.27,19.59,16.06,7.97,3.98,16.55,6,25.51,6,15.26,0,29.61-5.94,40.41-16.74,10.79-10.79,16.74-25.14,16.74-40.41h0Zm-27.01,0c0-4.01,3.26-7.27,7.27-7.27s7.27,3.26,7.27,7.27-3.26,7.27-7.27,7.27-7.27-3.26-7.27-7.27Z"/></g></svg>