<?xml version="1.0" encoding="UTF-8"?><svg id="_レイヤー_2" xmlns="http://www.w3.org/2000/svg" viewBox="0 0 130.32 113.33"><defs><style>.cls-1{stroke-width:0px;}</style></defs><g id="contents"><path class="cls-1" d="m130.32,21.63c0-11.93-9.7-21.63-21.63-21.63s-21.35,9.43-21.62,21.12c-5.53-4.31-10.01-6.36-10.41-6.54l-.05.11c-.3-.15-.62-.28-.95-.38-3.73-1.2-7.74.85-8.94,4.58l-20.8,64.53L25.11,18.88c-.76-2.35-2.69-4.14-5.09-4.72-2.41-.58-4.94.13-6.69,1.88L2.08,27.29c-2.77,2.77-2.77,7.27,0,10.04,2.77,2.77,7.27,2.77,10.04,0l3.03-3.03,23.89,74.1c.97,3.01,3.76,4.92,6.76,4.92.04,0,.07,0,.11,0,.04,0,.07,0,.11,0,3,0,5.79-1.92,6.76-4.92l24.73-76.7c5.32,3.99,12.42,10.94,15.82,21.33,4.57,13.98,1.49,30.71-9.16,49.72-1.92,3.42-.7,7.75,2.73,9.67,1.1.62,2.29.91,3.46.91,2.49,0,4.9-1.31,6.2-3.63,12.72-22.71,16.15-43.34,10.19-61.3-.64-1.94-1.38-3.78-2.18-5.53,1.34.26,2.71.4,4.12.4,11.93,0,21.63-9.7,21.63-21.63Zm-21.63-7.42c4.09,0,7.42,3.33,7.42,7.42s-3.33,7.43-7.42,7.43-7.42-3.33-7.42-7.43,3.33-7.42,7.42-7.42Z"/></g></svg>