<?xml version="1.0" encoding="UTF-8"?><svg id="_レイヤー_2" xmlns="http://www.w3.org/2000/svg" viewBox="0 0 131.46 110.66"><defs><style>.cls-1{stroke-width:0px;}</style></defs><g id="contents"><path class="cls-1" d="m124.3,96.33c-12.12,0-21.98-10.42-21.98-23.24v-35.54C102.32,16.85,86.03,0,66.01,0S29.71,16.85,29.71,37.56v14.66c-2.4-.9-4.99-1.39-7.69-1.39-12.14,0-22.02,9.88-22.02,22.02s9.88,22.02,22.02,22.02,21.25-9.13,21.97-20.62c.03-.26.05-.53.05-.8v-35.88c0-12.81,9.86-23.24,21.98-23.24s21.98,10.42,21.98,23.24c0,0,0,36.1,0,36.2.34,20.41,16.49,36.89,36.29,36.89,3.96,0,7.16-3.21,7.16-7.16s-3.21-7.16-7.16-7.16Zm-102.28-15.79c-4.24,0-7.69-3.45-7.69-7.69s3.45-7.69,7.69-7.69,7.69,3.45,7.69,7.69-3.45,7.69-7.69,7.69Z"/></g></svg>