<?xml version="1.0" encoding="UTF-8"?><svg id="_レイヤー_2" xmlns="http://www.w3.org/2000/svg" viewBox="0 0 106.77 102.66"><defs><style>.cls-1{stroke-width:0px;}</style></defs><g id="contents"><path class="cls-1" d="m100.82,91H5.95c-3.22,0-5.83,2.61-5.83,5.83s2.61,5.83,5.83,5.83h94.87c3.22,0,5.83-2.61,5.83-5.83s-2.61-5.83-5.83-5.83Z"/><path class="cls-1" d="m100.93,75.04h-5.59c1.16-1.89,2.2-3.87,3.11-5.92,2.77-6.28,4.18-12.96,4.18-19.88,0-13.16-5.12-25.52-14.43-34.82C78.91,5.12,66.54,0,53.38,0S27.86,5.12,18.56,14.43c-9.3,9.3-14.43,21.67-14.43,34.82,0,6.91,1.41,13.6,4.18,19.88.91,2.05,1.95,4.03,3.11,5.92h-5.59c-3.22,0-5.83,2.61-5.83,5.83s2.61,5.83,5.83,5.83h17.84c3.22,0,5.83-2.61,5.83-5.83,0-1.83-.85-3.47-2.17-4.54-7.44-7.15-11.54-16.75-11.54-27.09,0-20.72,16.86-37.59,37.59-37.59s37.59,16.86,37.59,37.59c0,10.33-4.09,19.94-11.54,27.09-1.32,1.07-2.17,2.71-2.17,4.54,0,3.22,2.61,5.83,5.83,5.83h17.84c3.22,0,5.83-2.61,5.83-5.83s-2.61-5.83-5.83-5.83Z"/></g></svg>