<?xml version="1.0" encoding="UTF-8"?><svg id="_レイヤー_2" xmlns="http://www.w3.org/2000/svg" viewBox="0 0 117.76 119.01"><defs><style>.cls-1{stroke-width:0px;}</style></defs><g id="contents"><path class="cls-1" d="m111.28,53.02h-23.36c1.88-19.63,12.08-32.68,21.07-42.04,2.48-2.58,2.4-6.69-.18-9.17-2.58-2.48-6.69-2.4-9.17.18-7.87,8.18-13.41,15.84-17.46,24.1-4.15,8.49-6.56,17.35-7.3,26.93h-32.01c-.74-9.58-3.14-18.44-7.3-26.93-4.04-8.26-9.59-15.92-17.46-24.1-2.48-2.58-6.59-2.66-9.17-.18-2.58,2.48-2.66,6.59-.18,9.17,9,9.36,19.2,22.41,21.07,42.04H6.49c-3.58,0-6.49,2.9-6.49,6.48s2.9,6.49,6.49,6.49h23.36c-1.88,19.63-12.08,32.68-21.07,42.04-2.48,2.58-2.4,6.69.18,9.17,1.26,1.21,2.88,1.81,4.49,1.81,1.7,0,3.4-.67,4.68-1.99,7.87-8.18,13.41-15.84,17.46-24.1,4.15-8.49,6.56-17.35,7.3-26.93h32.01c.74,9.58,3.14,18.44,7.3,26.93,4.04,8.26,9.59,15.92,17.46,24.1,1.27,1.32,2.97,1.99,4.68,1.99s3.24-.6,4.49-1.81c2.58-2.48,2.66-6.59.18-9.17-8.99-9.36-19.19-22.4-21.07-42.04h23.36c3.58,0,6.49-2.9,6.49-6.49s-2.9-6.48-6.49-6.48Z"/></g></svg>