<?xml version="1.0" encoding="UTF-8"?><svg id="_レイヤー_2" xmlns="http://www.w3.org/2000/svg" viewBox="0 0 116.33 115.91"><defs><style>.cls-1{stroke-width:0px;}</style></defs><g id="contents"><path class="cls-1" d="m116.02.31c-.2-.2-.47-.31-.74-.31-.04,0-.08,0-.12,0l-41.6,4.58c-.47.05-.85.41-.92.88-.08.47.17.93.59,1.13l18.34,8.53-48.9,48.9-17.61-17.61c-2.55-2.55-6.69-2.55-9.24,0-2.55,2.55-2.55,6.68,0,9.23l17.61,17.61L1.91,104.77c-2.55,2.55-2.55,6.68,0,9.23,1.28,1.28,2.95,1.91,4.62,1.91s3.34-.63,4.62-1.91l31.51-31.51,18.98,18.98c1.28,1.28,2.95,1.91,4.62,1.91s3.34-.64,4.62-1.91c2.55-2.55,2.55-6.69,0-9.23l-18.98-18.98,48.86-48.87,8.97,18.79c.18.37.55.6.95.6.06,0,.12,0,.18-.01.46-.08.82-.46.87-.92L116.32,1.17c.03-.32-.08-.63-.3-.86Z"/></g></svg>