<?xml version="1.0" encoding="UTF-8"?><svg id="_レイヤー_2" xmlns="http://www.w3.org/2000/svg" viewBox="0 0 135.82 103.84"><defs><style>.cls-1{stroke-width:0px;}</style></defs><g id="contents"><path class="cls-1" d="m135.82,63.91l-17.82-17.82-17.82,17.82h10.42v16.06c0,5-3.76,9.07-8.39,9.07s-8.39-4.07-8.39-9.07V23.88C93.81,10.71,83.41,0,70.62,0,64.52,0,58.97,2.43,54.83,6.41,50.68,2.43,45.13,0,39.03,0s-11.8,2.5-15.96,6.57C19.39,3.31,14.48,1.05,8.59.1,4.56-.56.75,2.18.1,6.22c-.66,4.04,2.08,7.84,6.12,8.5,6.35,1.03,9.61,4.12,9.61,9.17,0,.27,0,52.66,0,52.66,0,4.09,3.31,7.4,7.4,7.4s7.4-3.31,7.4-7.4V23.88c0-5,3.76-9.07,8.39-9.07s8.39,4.07,8.39,9.07v52.66c0,4.09,3.31,7.4,7.4,7.4s7.4-3.31,7.4-7.4V23.88c0-5,3.76-9.07,8.39-9.07s8.39,4.07,8.39,9.07v56.08c0,13.17,10.41,23.88,23.2,23.88s23.2-10.71,23.2-23.88v-16.06h10.42Z"/></g></svg>