<?xml version="1.0" encoding="UTF-8"?><svg id="_レイヤー_2" xmlns="http://www.w3.org/2000/svg" viewBox="0 0 129.61 115.19"><defs><style>.cls-1{stroke-width:0px;}</style></defs><g id="contents"><path class="cls-1" d="m64.81,115.19c-13.1,0-25.42-5.1-34.69-14.37-9.27-9.27-14.37-21.59-14.37-34.69s5.1-25.42,14.37-34.69c2.29-2.29,4.8-4.35,7.48-6.14C16.65,21.36,4.04,13.8,3.5,13.48c-1.66-1-2.83-2.6-3.29-4.48-.46-1.89-.16-3.84.84-5.5C2.39,1.31,4.71,0,7.27,0c1.32,0,2.61.36,3.75,1.05.11.07,11.77,6.91,30.72,10.24,7.04,1.24,14.25,1.86,21.42,1.86.54,0,1.08,0,1.63,0h.03c.54,0,1.08,0,1.63,0,7.17,0,14.37-.63,21.42-1.86,18.94-3.32,30.61-10.17,30.73-10.24,1.13-.68,2.42-1.04,3.74-1.04,2.56,0,4.89,1.31,6.22,3.5,1.01,1.66,1.31,3.61.84,5.5s-1.63,3.48-3.29,4.48c-.53.32-13.15,7.88-34.09,11.82,2.68,1.79,5.18,3.85,7.48,6.14,9.26,9.27,14.37,21.59,14.37,34.69,0,27.05-22.01,49.06-49.06,49.06Zm0-83.59c-19.04,0-34.53,15.49-34.53,34.53s15.49,34.53,34.53,34.53,34.53-15.49,34.53-34.53-15.49-34.53-34.53-34.53Z"/></g></svg>