<?xml version="1.0" encoding="UTF-8"?><svg id="_レイヤー_2" xmlns="http://www.w3.org/2000/svg" viewBox="0 0 120.19 105.33"><defs><style>.cls-1{stroke-width:0px;}</style></defs><g id="contents"><path class="cls-1" d="m103.25,86.22c-3.95-.68-8.53-2.46-9.99-6.96,2.85-3.57,5.69-7.31,8.37-11.06,17.29-24.22,22.43-40.95,15.71-51.14-2.93-4.44-7.11-7.27-12.09-8.18-5.65-1.04-11.34.56-15.65,2.44C85.67,4.54,78.49,0,70.29,0,64.08,0,58.45,2.61,54.37,6.82,50.3,2.61,44.67,0,38.45,0s-11.98,2.67-16.07,6.98C18.73,3.49,13.71,1.08,7.62.09,4.04-.5.67,1.93.09,5.52c-.58,3.58,1.85,6.95,5.43,7.54,6.91,1.12,10.44,4.53,10.44,10.12,0,.25.01,53.09.01,53.09,0,3.63,2.94,6.57,6.57,6.57s6.57-2.94,6.57-6.57V23.18c0-5.54,4.2-10.04,9.35-10.04s9.35,4.5,9.35,10.04v53.09c0,3.63,2.94,6.57,6.57,6.57s6.57-2.94,6.57-6.57V23.18c0-5.54,4.2-10.04,9.35-10.04s9.35,4.5,9.35,10.04v52.01c-8.14,9.81-15.2,16.97-16.97,18.27-2.93,2.14-3.56,6.25-1.42,9.18,1.29,1.76,3.28,2.69,5.31,2.69,1.35,0,2.7-.41,3.87-1.27,2.45-1.8,7.72-7.09,13.86-14.08,3.7,4.67,9.45,7.93,16.72,9.18.38.07.75.1,1.12.1,3.14,0,5.91-2.26,6.46-5.45.62-3.57-1.78-6.97-5.36-7.59Zm-.36-64.42c.98.18,2.25.63,3.48,2.49.5.76,1.87,3.95-1.74,12.85-2.38,5.88-6.37,12.87-11.85,20.8V24.36c2.85-1.51,6.98-3.16,10.11-2.57Z"/></g></svg>